<svg xmlns="http://www.w3.org/2000/svg" viewBox="0 0 48 48"><path d="M16.13,26.21a4.06,4.06,0,0,0-.82,1.33L13,34.5a.4.4,0,0,0,.51.51l7-2.32a4.06,4.06,0,0,0,1.33-.82l13-13a.8.8,0,0,0,0-1.13L30.27,13.2a.8.8,0,0,0-1.13,0ZM14.44,33.3,16.23,28a.25.25,0,0,1,.41-.1l3.5,3.51a.24.24,0,0,1-.09.41L14.7,33.56A.21.21,0,0,1,14.44,33.3Zm6.5-2.56-3.68-3.68a.4.4,0,0,1,0-.56l7.92-7.92a.4.4,0,0,1,.57,0l3.67,3.67a.4.4,0,0,1,0,.57L21.5,30.74A.4.4,0,0,1,20.94,30.74Zm9.19-9.19-3.68-3.68a.42.42,0,0,1,0-.57l.85-.85a.42.42,0,0,1,.57,0l3.68,3.68a.42.42,0,0,1,0,.57l-.85.85A.42.42,0,0,1,30.13,21.55Zm3.54-3-.85.84a.4.4,0,0,1-.57,0l-3.67-3.67a.4.4,0,0,1,0-.57l.84-.85a.42.42,0,0,1,.57,0L33.67,18A.42.42,0,0,1,33.67,18.58Z"/></svg>