<svg xmlns="http://www.w3.org/2000/svg" viewBox="0 0 48 48"><path d="M24.5,19.2v9.6a.2.2,0,0,0,.2.2h1.4a.4.4,0,0,1,.4.4v.2a.4.4,0,0,1-.4.4H21.9a.4.4,0,0,1-.4-.4v-.2a.4.4,0,0,1,.4-.4h1.4a.2.2,0,0,0,.2-.2V19.2a.2.2,0,0,0-.2-.2H21.9a.4.4,0,0,1-.4-.4v-.2a.4.4,0,0,1,.4-.4h4.2a.4.4,0,0,1,.4.4v.2a.4.4,0,0,1-.4.4H24.7A.2.2,0,0,0,24.5,19.2Z"/><rect x="10" y="18" width="1" height="4" rx="0.4"/><rect x="10" y="26" width="1" height="4" rx="0.4"/><path d="M11,34.4a.4.4,0,0,0-.4-.4h-.2a.4.4,0,0,0-.4.4v3.2a.4.4,0,0,0,.4.4h3.2a.4.4,0,0,0,.4-.4v-.2a.4.4,0,0,0-.4-.4H11.2a.2.2,0,0,1-.2-.2Z"/><rect x="37" y="18" width="1" height="4" rx="0.4"/><rect x="37" y="26" width="1" height="4" rx="0.4"/><path d="M37,36.8a.2.2,0,0,1-.2.2H34.4a.4.4,0,0,0-.4.4v.2a.4.4,0,0,0,.4.4h3.2a.4.4,0,0,0,.4-.4V34.4a.4.4,0,0,0-.4-.4h-.2a.4.4,0,0,0-.4.4Z"/><path d="M10.4,10a.4.4,0,0,0-.4.4v3.2a.4.4,0,0,0,.4.4h.2a.4.4,0,0,0,.4-.4V11.2a.2.2,0,0,1,.2-.2h2.4a.4.4,0,0,0,.4-.4v-.2a.4.4,0,0,0-.4-.4H10.4Z"/><rect x="18" y="10" width="4" height="1" rx="0.4"/><rect x="26" y="10" width="4" height="1" rx="0.4"/><path d="M37.4,10h-3a.4.4,0,0,0-.4.4v.2a.4.4,0,0,0,.4.4h2.4a.2.2,0,0,1,.2.2v2.4a.4.4,0,0,0,.4.4h.2a.4.4,0,0,0,.4-.4V10.4a.4.4,0,0,0-.4-.4Z"/><rect x="18" y="37" width="4" height="1" rx="0.4"/><rect x="26" y="37" width="4" height="1" rx="0.4"/></svg>