<svg xmlns="http://www.w3.org/2000/svg" viewBox="0 0 48 48"><path d="M35.77,12.77,31.23,8.23A.79.79,0,0,0,30.67,8H12.8a.8.8,0,0,0-.8.8V39.2a.8.8,0,0,0,.8.8H35.2a.8.8,0,0,0,.8-.8V13.33A.79.79,0,0,0,35.77,12.77ZM31,9.87a.18.18,0,0,1,.31-.12l2.94,2.94a.18.18,0,0,1-.12.31h-3a.18.18,0,0,1-.18-.18ZM35,38.6a.4.4,0,0,1-.4.4H13.4a.4.4,0,0,1-.4-.4V9.4a.4.4,0,0,1,.4-.4H29.6a.4.4,0,0,1,.4.4v4.2a.4.4,0,0,0,.4.4h4.2a.4.4,0,0,1,.4.4Z"/><path d="M26.1,29H24.7a.2.2,0,0,1-.2-.2V27.4a.4.4,0,0,0-.4-.4h-.2a.4.4,0,0,0-.4.4v1.4a.2.2,0,0,1-.2.2H21.9a.4.4,0,0,0-.4.4v.2a.4.4,0,0,0,.4.4h1.4a.2.2,0,0,1,.2.2v1.4a.4.4,0,0,0,.4.4h.2a.4.4,0,0,0,.4-.4V30.2a.2.2,0,0,1,.2-.2h1.4a.4.4,0,0,0,.4-.4v-.2A.4.4,0,0,0,26.1,29Z"/><path d="M29.2,25.5h-.92a.29.29,0,0,1-.28-.28V23.5a4,4,0,0,0-8,0v1.72a.29.29,0,0,1-.28.28H18.8a.8.8,0,0,0-.8.8v6.4a.8.8,0,0,0,.8.8H29.2a.8.8,0,0,0,.8-.8V26.3A.8.8,0,0,0,29.2,25.5Zm-8.2-2a3,3,0,0,1,6,0v1.72a.29.29,0,0,1-.28.28H21.28a.29.29,0,0,1-.28-.28Zm8,8.6a.4.4,0,0,1-.4.4H19.4a.4.4,0,0,1-.4-.4V26.9a.4.4,0,0,1,.4-.4h9.2a.4.4,0,0,1,.4.4Z"/></svg>