<svg xmlns="http://www.w3.org/2000/svg" viewBox="0 0 48 48"><path d="M19.4,16h9.2a.4.4,0,0,0,.4-.4V13.4a.4.4,0,0,0-.4-.4h-.8a.8.8,0,0,1-.8-.8V10.4a.4.4,0,0,0-.4-.4H21.4a.4.4,0,0,0-.4.4v1.8a.8.8,0,0,1-.8.8h-.8a.4.4,0,0,0-.4.4v2.2A.4.4,0,0,0,19.4,16ZM22,11h4v1H22Z" fill="none"/><path d="M34.6,13H30.4a.4.4,0,0,0-.4.4v2.8a.8.8,0,0,1-.8.8H18.8a.8.8,0,0,1-.8-.8V13.4a.4.4,0,0,0-.4-.4H13.4a.4.4,0,0,0-.4.4V34.6a.4.4,0,0,0,.4.4H34.6a.4.4,0,0,0,.4-.4V13.4A.4.4,0,0,0,34.6,13Z" fill="none"/><path d="M35.2,12H28.4a.4.4,0,0,1-.4-.4V9.8a.8.8,0,0,0-.8-.8H20.8a.8.8,0,0,0-.8.8v1.8a.4.4,0,0,1-.4.4H12.8a.8.8,0,0,0-.8.8V35.2a.8.8,0,0,0,.8.8H35.2a.8.8,0,0,0,.8-.8V12.8A.8.8,0,0,0,35.2,12ZM19,13.4a.4.4,0,0,1,.4-.4h.8a.8.8,0,0,0,.8-.8V10.4a.4.4,0,0,1,.4-.4h5.2a.4.4,0,0,1,.4.4v1.8a.8.8,0,0,0,.8.8h.8a.4.4,0,0,1,.4.4v2.2a.4.4,0,0,1-.4.4H19.4a.4.4,0,0,1-.4-.4ZM35,34.6a.4.4,0,0,1-.4.4H13.4a.4.4,0,0,1-.4-.4V13.4a.4.4,0,0,1,.4-.4h4.2a.4.4,0,0,1,.4.4v2.8a.8.8,0,0,0,.8.8H29.2a.8.8,0,0,0,.8-.8V13.4a.4.4,0,0,1,.4-.4h4.2a.4.4,0,0,1,.4.4Z"/><rect x="22" y="11" width="4" height="1" rx="0.4"/></svg>