<svg xmlns="http://www.w3.org/2000/svg" viewBox="0 0 48 48"><path d="M24,9A15,15,0,1,1,9,24,15,15,0,0,1,24,9Zm0-1A16,16,0,1,0,40,24,16,16,0,0,0,24,8Z"/><path d="M27.54,19.92a.4.4,0,0,0-.29.12l-3,3a.39.39,0,0,1-.56,0l-3-3a.4.4,0,0,0-.29-.12.39.39,0,0,0-.28.12l-.14.14a.4.4,0,0,0,0,.57l3,3a.39.39,0,0,1,0,.56l-3,3a.4.4,0,0,0,0,.57l.14.14a.39.39,0,0,0,.28.12.4.4,0,0,0,.29-.12l3-3a.39.39,0,0,1,.56,0l3,3a.4.4,0,0,0,.29.12.39.39,0,0,0,.28-.12l.14-.14a.4.4,0,0,0,0-.57l-3-3a.39.39,0,0,1,0-.56l3-3a.4.4,0,0,0,0-.57L27.82,20a.39.39,0,0,0-.28-.12Z"/></svg>