<svg xmlns="http://www.w3.org/2000/svg" viewBox="0 0 48 48"><path d="M34.26,10.57A2.21,2.21,0,0,0,32.89,10H10.8a.8.8,0,0,0-.8.8V37.2a.8.8,0,0,0,.8.8H37.2a.8.8,0,0,0,.8-.8V15.11a2.21,2.21,0,0,0-.57-1.37ZM29,11.4v8.2a.4.4,0,0,1-.4.4H14.4a.4.4,0,0,1-.4-.4V11.4a.4.4,0,0,1,.4-.4H28.6A.4.4,0,0,1,29,11.4ZM36.6,37H11.4a.4.4,0,0,1-.4-.4V11.4a.4.4,0,0,1,.4-.4h1.2a.4.4,0,0,1,.4.4v8.8a.8.8,0,0,0,.8.8H29.2a.8.8,0,0,0,.8-.8V11.4a.4.4,0,0,1,.4-.4h2.08a2.16,2.16,0,0,1,1.36.57l2.59,2.59A2.16,2.16,0,0,1,37,15.52V36.6A.4.4,0,0,1,36.6,37Z"/><path d="M24,26a3,3,0,1,1-3,3,3,3,0,0,1,3-3m0-1a4,4,0,1,0,4,4,4,4,0,0,0-4-4Z"/><path d="M23,12.4v5.8a.8.8,0,0,0,.8.8h2.8a.4.4,0,0,0,.4-.4V12.4a.4.4,0,0,0-.4-.4H23.4A.4.4,0,0,0,23,12.4Z"/></svg>